# xmcd
#
# Track frame offsets:
#	150
#	15209
#	28834
#	42763
#	57149
#	72753
#	89342
#	104580
#	119577
#	136194
#	150155
#	164352
#	180153
#	193199
#
# Disc length: 2782 seconds
#
# Revision: 1
# Processed by: cddbd v1.5.2PL0 Copyright (c) Steve Scherf et al.
# Submitted via: audiograbber 1.83.01
#
DISCID=aa0adc0e
DTITLE=João Pedro and Cristiano - Amor Verdadeiro
DYEAR=2009
DGENRE=Sertanejo
TTITLE0=entre a raiva e a saudade
TTITLE1=por você
TTITLE2=chega de sofrer
TTITLE3=esperando ela chegar
TTITLE4=só eu sei
TTITLE5=filho do dono
TTITLE6=culpados
TTITLE7=do lado de lá
TTITLE8=amor verdadeiro
TTITLE9=prova de fogo
TTITLE10=vai passar
TTITLE11=planos incríveis
TTITLE12=vou até o fim
TTITLE13=não sei nem sonhar
EXTD=
EXTT0=
EXTT1=
EXTT2=
EXTT3=
EXTT4=
EXTT5=
EXTT6=
EXTT7=
EXTT8=
EXTT9=
EXTT10=
EXTT11=
EXTT12=
EXTT13=
PLAYORDER=
